<svg xmlns="http://www.w3.org/2000/svg" viewBox="0 0 200 200">
<rect width="200" height="200" rx="34" fill="#fff"/><path d="M43 70c18-38 77-34 102-4 24 29 10 75-33 82-36 6-70-17-74-52" fill="none" stroke="#1f2a44" stroke-width="12" stroke-linecap="round"/><path d="M72 80c8-22 39-21 48 0 9-21 43-21 50 1 9 30-36 58-50 75-14-17-58-45-48-76z" fill="#e51f2b"/><path d="M57 113h36l11-26 16 55 15-42 9 22h35" fill="none" stroke="#fff" stroke-width="8" stroke-linecap="round" stroke-linejoin="round"/><text x="100" y="178" text-anchor="middle" font-family="Arial" font-weight="800" font-size="20" fill="#1f2a44">CEEB</text></svg>
